# xmcd
#
# Track frame offsets:
#	150
#	18891
#	43978
#	70382
#	93514
#	114986
#	131523
#	149187
#	170651
#	192656
#	217130
#	237284
#	258010
#	270484
#	275911
#
# Disc length: 3907 seconds
#
# Revision: 0
# Processed by: cddbd v1.4PL0 Copyright (c) Steve Scherf et al.
# Submitted via: dBpowerAMP V4.0
#
DISCID=f10f410f
DTITLE=Trainwreck - There's a Trainwreck A' Comin'
DYEAR=2003
DGENRE=Blues
TTITLE0=Let's Cut Some Wood
TTITLE1=Getaway Blues
TTITLE2=There's a Trainwreck A' Comin'
TTITLE3=When the Roll is Called
TTITLE4=Jump on the Line
TTITLE5=Trimmed and Burnin'
TTITLE6=Screamin' and Hollerin'
TTITLE7=Nobody But You
TTITLE8=I Need Your Love
TTITLE9=You Need a New Roosta
TTITLE10=I'm A King, Baby
TTITLE11=Can't be Worried No More
TTITLE12=Tell The Truth
TTITLE13=Washboard's Boogie
TTITLE14=Goin Back to the Country
EXTD=
EXTT0=
EXTT1=
EXTT2=
EXTT3=
EXTT4=
EXTT5=
EXTT6=
EXTT7=
EXTT8=
EXTT9=
EXTT10=
EXTT11=
EXTT12=
EXTT13=
EXTT14=
PLAYORDER=
